# xmcd CD database file
#
# Track frame offsets:
#	150
#	14310
#	29695
#	44172
#	60330
#	72182
#	86032
#	100940
#	117652
#	134917
#	151465
#	165795
#	183762
#	204860
#	221997
#	241192
#	252587
#	270337
#	275977
#	294810
#	299947
#	311530
#
# Disc length: 4299 seconds
#
# Revision: 0
# Processed by: cddbd v1.4PL0 Copyright (c) Steve Scherf et al.
# Submitted via: CDex 1.50beta10
#
DISCID=5710c916
DTITLE=Mississippi John Hurt - The Best Of Mississippi John Hurt
DYEAR=1966
DGENRE=Blues
TTITLE0=Here am I oh Lord send me
TTITLE1=I shall not be moved
TTITLE2=Nearer my God to thee
TTITLE3=Baby what's wrong with you
TTITLE4=It ain't nobody's business
TTITLE5=Salty dog blues
TTITLE6=Coffee blues
TTITLE7=Avalon my home town
TTITLE8=Make me a pallet on the floor
TTITLE9=Since I've laid this burden down
TTITLE10=Sliding delta
TTITLE11=Monday morning blues
TTITLE12=Richland women blues
TTITLE13=Candy man
TTITLE14=Stagolee
TTITLE15=My creolle belle
TTITLE16=C.C. Rider
TTITLE17=Spanish Fandango
TTITLE18=Taling Casey
TTITLE19=Chicken
TTITLE20=You are my sunshine
TTITLE21=Goodnight Irene
EXTD=YEAR: 1966
EXTT0=
EXTT1=
EXTT2=
EXTT3=
EXTT4=
EXTT5=
EXTT6=
EXTT7=
EXTT8=
EXTT9=
EXTT10=
EXTT11=
EXTT12=
EXTT13=
EXTT14=
EXTT15=
EXTT16=
EXTT17=
EXTT18=
EXTT19=
EXTT20=
EXTT21=
PLAYORDER=
